<svg width="58" height="26" viewBox="0 0 58 26" fill="none" xmlns="http://www.w3.org/2000/svg">
    <path
        d="M17.6069 8.64893C17.4396 8.07131 17.2045 7.56095 16.9018 7.11785C16.599 6.66684 16.2285 6.28704 15.7903 5.97845C15.3601 5.66195 14.8661 5.42062 14.3084 5.25446C13.7587 5.08829 13.1492 5.00521 12.4799 5.00521C11.2291 5.00521 10.1296 5.3138 9.18146 5.93098C8.24132 6.54815 7.50833 7.44622 6.98249 8.62519C6.45665 9.79624 6.19373 11.2284 6.19373 12.9217C6.19373 14.615 6.45266 16.055 6.97054 17.2419C7.48841 18.4288 8.2214 19.3348 9.16951 19.9599C10.1176 20.577 11.237 20.8856 12.5277 20.8856C13.6989 20.8856 14.6988 20.6799 15.5274 20.2685C16.364 19.8491 17.0014 19.2596 17.4396 18.5C17.8857 17.7404 18.1088 16.8423 18.1088 15.8058L19.1605 15.9601H12.8504V12.0909H23.0924V15.153C23.0924 17.2894 22.6382 19.1251 21.7299 20.6601C20.8217 22.1872 19.5708 23.3662 17.9774 24.197C16.3839 25.0199 14.5594 25.4314 12.5038 25.4314C10.2092 25.4314 8.19352 24.9289 6.45665 23.924C4.71978 22.9112 3.36534 21.4751 2.39333 19.6157C1.42929 17.7483 0.947266 15.5328 0.947266 12.9692C0.947266 10.9989 1.23409 9.24236 1.80773 7.69942C2.38935 6.14857 3.20201 4.83509 4.24572 3.75899C5.28944 2.68289 6.50445 1.86394 7.89076 1.30216C9.27707 0.740367 10.7789 0.459473 12.3963 0.459473C13.7826 0.459473 15.0733 0.661242 16.2684 1.06478C17.4635 1.46041 18.5231 2.02219 19.4473 2.75015C20.3795 3.4781 21.1404 4.34452 21.7299 5.34941C22.3195 6.34638 22.698 7.44622 22.8653 8.64893H17.6069Z"
        fill="#212121" />
    <path d="M32.1542 0.791798V25.099H26.9794V0.791798H32.1542Z" fill="#212121" />
    <path
        d="M45.0881 25.099H36.4117V0.791798H45.1598C47.6217 0.791798 49.741 1.27842 51.5177 2.25166C53.2944 3.21698 54.6608 4.60563 55.6168 6.4176C56.5809 8.22956 57.0629 10.3976 57.0629 12.9217C57.0629 15.4537 56.5809 17.6296 55.6168 19.4495C54.6608 21.2694 53.2864 22.6659 51.4938 23.6392C49.7091 24.6124 47.5739 25.099 45.0881 25.099ZM41.5864 20.6957H44.8729C46.4027 20.6957 47.6894 20.4267 48.7331 19.8887C49.7848 19.3427 50.5735 18.5 51.0994 17.3606C51.6332 16.2133 51.9001 14.7336 51.9001 12.9217C51.9001 11.1255 51.6332 9.65777 51.0994 8.51837C50.5735 7.37897 49.7888 6.54024 48.745 6.00219C47.7013 5.46414 46.4146 5.19511 44.8849 5.19511H41.5864V20.6957Z"
        fill="#212121" />
</svg>
    