<svg width="14" height="13" viewBox="0 0 14 13" fill="none" xmlns="http://www.w3.org/2000/svg">
    <path
        d="M6.52144 1.30205C6.6751 0.990755 6.75193 0.835109 6.85623 0.78538C6.94697 0.742113 7.0524 0.742113 7.14314 0.78538C7.24744 0.835109 7.32427 0.990755 7.47793 1.30205L8.93571 4.25536C8.98108 4.34726 9.00376 4.39321 9.03691 4.42889C9.06626 4.46048 9.10145 4.48607 9.14055 4.50425C9.18471 4.52479 9.23541 4.5322 9.33682 4.54702L12.5977 5.02364C12.9411 5.07383 13.1127 5.09893 13.1922 5.1828C13.2613 5.25576 13.2938 5.35603 13.2807 5.45569C13.2656 5.57022 13.1413 5.69129 12.8927 5.93342L10.534 8.23078C10.4604 8.3024 10.4237 8.33821 10.4 8.38081C10.379 8.41854 10.3655 8.45998 10.3603 8.50284C10.3544 8.55125 10.3631 8.60183 10.3804 8.703L10.937 11.9479C10.9957 12.2902 11.025 12.4613 10.9699 12.5628C10.9219 12.6512 10.8366 12.7132 10.7377 12.7315C10.6241 12.7526 10.4704 12.6717 10.1631 12.5101L7.24793 10.9771C7.1571 10.9293 7.11168 10.9054 7.06384 10.896C7.02147 10.8877 6.9779 10.8877 6.93554 10.896C6.88769 10.9054 6.84228 10.9293 6.75145 10.9771L3.83629 12.5101C3.52895 12.6717 3.37528 12.7526 3.26166 12.7315C3.1628 12.7132 3.07749 12.6512 3.0295 12.5628C2.97434 12.4613 3.00369 12.2902 3.06239 11.9479L3.61893 8.703C3.63628 8.60183 3.64496 8.55125 3.63909 8.50284C3.63389 8.45998 3.62042 8.41854 3.59941 8.38081C3.57569 8.33821 3.53893 8.3024 3.4654 8.23078L1.10671 5.93342C0.858116 5.69129 0.733818 5.57022 0.718692 5.45569C0.705532 5.35603 0.738043 5.25576 0.807175 5.1828C0.886631 5.09893 1.05832 5.07383 1.4017 5.02364L4.66255 4.54702C4.76396 4.5322 4.81466 4.52479 4.85882 4.50425C4.89792 4.48607 4.93312 4.46048 4.96246 4.42889C4.99561 4.39321 5.01829 4.34726 5.06366 4.25536L6.52144 1.30205Z"
        fill="#FBAD38" />
</svg>
    